<svg xmlns="http://www.w3.org/2000/svg" viewBox="0 0 980 280" fill="none" role="img" aria-label="DualisCapax">
  <title>DualisCapax</title>
  <text x="36" y="168" font-family="Inter, Montserrat, Arial Black, Arial, sans-serif" font-size="118" font-weight="800" letter-spacing="-3.5" fill="#ffffff">DualisCapax</text>
  <g transform="translate(768,46)" stroke-linecap="round" stroke-linejoin="round">
    <defs>
      <mask id="cut-hx">
        <rect x="-40" y="-20" width="280" height="280" fill="#fff"/>
        <g stroke="#000" stroke-width="7.2">
          <line x1="46" y1="28" x2="86" y2="42"/>
          <line x1="40" y1="48" x2="84" y2="64"/>
          <line x1="38" y1="70" x2="78" y2="84"/>
          <line x1="54" y1="128" x2="96" y2="142"/>
          <line x1="50" y1="148" x2="94" y2="162"/>
          <line x1="48" y1="168" x2="90" y2="182"/>
          <line x1="52" y1="188" x2="88" y2="200"/>
        </g>
      </mask>
    </defs>
    <path mask="url(#cut-hx)" d="M48 10 C18 34 20 68 52 92 C78 110 74 128 48 146 C22 164 28 188 62 206" stroke="#ffffff" stroke-width="13" fill="none"/>
    <path mask="url(#cut-hx)" d="M78 6 C110 28 112 66 76 94 C50 112 56 132 86 154 C118 178 96 214 28 228 C-36 240 -140 236 -250 222" stroke="#ffffff" stroke-width="13" fill="none"/>
  </g>
</svg>
